<?xml version="1.0" standalone="no"?>
<!DOCTYPE svg PUBLIC "-//W3C//DTD SVG 20010904//EN"
 "http://www.w3.org/TR/2001/REC-SVG-20010904/DTD/svg10.dtd">
<svg version="1.0" xmlns="http://www.w3.org/2000/svg"
 width="700.000000pt" height="700.000000pt" viewBox="0 0 700.000000 700.000000"
 preserveAspectRatio="xMidYMid meet">
<metadata>
Created by potrace 1.11, written by Peter Selinger 2001-2013
</metadata>
<g transform="translate(0.000000,700.000000) scale(0.100000,-0.100000)"
fill="#000000" stroke="none">
<path d="M1659 6706 c-2 -3 -24 -7 -49 -11 -364 -51 -665 -355 -726 -735 -13
-80 -11 -4836 2 -4915 18 -112 34 -165 75 -251 111 -236 320 -407 582 -477
l82 -22 1860 0 c1023 0 1876 3 1895 6 101 19 211 55 262 86 21 13 40 23 44 23
13 0 131 90 177 135 141 139 230 321 255 520 3 28 6 862 6 1855 1 1737 0 1807
-18 1855 -16 45 -120 152 -960 993 l-941 942 -1271 0 c-699 0 -1273 -2 -1275
-4z m2132 -1316 c0 -404 2 -750 5 -769 13 -100 97 -198 199 -232 32 -10 195
-13 787 -14 410 0 749 -3 753 -7 11 -10 6 -3239 -4 -3276 -31 -107 -111 -182
-221 -209 -19 -5 -843 -8 -1830 -8 -1791 2 -1795 2 -1841 22 -88 40 -154 120
-174 211 -8 40 -9 4731 0 4784 18 108 120 207 235 227 19 4 497 6 1063 6
l1027 0 1 -735z m1325 -427 c-6 -6 -725 -5 -733 0 -6 4 -10 710 -4 738 0 4
167 -161 371 -364 203 -204 368 -373 366 -374z"/>
<path d="M2244 4651 c-69 -25 -100 -46 -140 -99 -84 -111 -79 -268 14 -373 17
-19 57 -48 89 -65 l58 -29 360 0 360 0 49 24 c114 56 171 146 171 267 -1 120
-64 217 -174 268 -44 20 -64 21 -391 23 -310 1 -350 0 -396 -16z"/>
<path d="M2235 3482 c-69 -23 -155 -109 -176 -178 -43 -136 16 -289 134 -351
73 -38 100 -39 1327 -38 1298 2 1234 -1 1318 58 145 104 158 325 25 448 -87
80 30 74 -1348 76 -1121 2 -1234 0 -1280 -15z"/>
<path d="M2291 2328 c-96 -14 -178 -75 -222 -165 -19 -38 -24 -64 -23 -123 0
-92 30 -157 100 -219 86 -76 3 -72 1375 -69 1365 3 1254 -3 1339 74 65 59 94
124 94 214 0 124 -59 216 -173 268 l-56 26 -1191 0 c-655 1 -1214 -2 -1243 -6z"/>
</g>
</svg>
